<?xml version="1.0" encoding="UTF-8"?>
<svg width="320.5pt" height="347.8pt" version="1.2" viewBox="0 0 320.5 347.8" xmlns="http://www.w3.org/2000/svg" xmlns:xlink="http://www.w3.org/1999/xlink"><defs><symbol id="j" overflow="visible"><path d="m36.7-43.95c0 5.969-1.621 10.54-4.859 13.72-3.242 3.18-7.836 4.766-13.78 4.766h-7.625v25.47h-3.453v-61.66h12.09c11.75 0 17.62 5.902 17.62 17.7zm-26.27 14.77h6.781c5.562 0 9.578-1.145 12.05-3.438 2.477-2.289 3.719-6.008 3.719-11.16 0-4.75-1.172-8.27-3.516-10.56-2.336-2.289-5.953-3.438-10.86-3.438h-8.172z"/></symbol><symbol id="i" overflow="visible"><path d="m33.97 0h-26.98v-61.66h26.98v3.953h-23.53v23.33h22.22v3.969h-22.22v26.44h23.53z"/></symbol><symbol id="h" overflow="visible"><path d="m19.86 0h-3.484v-57.61h-16.03v-4.047h35.55v4.047h-16.03z"/></symbol><symbol id="g" overflow="visible"><path d="m30.58-51.67c-4.43 0-7.859 1.852-10.3 5.547-2.43 3.699-3.641 8.855-3.641 15.47 0 13.75 4.645 20.62 13.94 20.62 3.906 0 8.629-1.082 14.17-3.25v10.97c-4.555 2.105-9.641 3.156-15.27 3.156-8.086 0-14.27-2.719-18.55-8.156-4.281-5.445-6.422-13.26-6.422-23.44 0-6.406 1.051-12.02 3.156-16.84 2.102-4.82 5.125-8.52 9.062-11.09 3.938-2.57 8.551-3.859 13.84-3.859 5.395 0 10.82 1.449 16.27 4.344l-3.797 10.62c-2.074-1.094-4.164-2.047-6.266-2.859-2.105-0.8203-4.172-1.234-6.203-1.234z"/></symbol><symbol id="f" overflow="visible"><path d="m57.41-30.92c0 10.21-2.281 18.06-6.844 23.55-4.555 5.48-11.09 8.219-19.59 8.219-8.512 0-15.05-2.738-19.61-8.219-4.562-5.488-6.844-13.36-6.844-23.62 0-10.26 2.285-18.09 6.859-23.5 4.57-5.414 11.13-8.125 19.67-8.125 8.531 0 15.05 2.73 19.58 8.188 4.52 5.449 6.781 13.29 6.781 23.52zm-40.53 0c0 6.898 1.176 12.09 3.531 15.58 2.352 3.48 5.875 5.219 10.56 5.219 9.395 0 14.09-6.93 14.09-20.8 0-13.88-4.672-20.83-14.02-20.83-4.688 0-8.227 1.75-10.61 5.25-2.375 3.5-3.562 8.695-3.562 15.58z"/></symbol><symbol id="e" overflow="visible"><path d="m30.52 0-13.38-48.38h-0.3438c0.4766 9.844 0.7188 16.41 0.7188 19.7v28.67h-10.53v-61.66h16.05l13.14 47.14h0.2344l13.94-47.14h16.03v61.66h-10.98v-29.19c0-1.375 0.01953-2.961 0.0625-4.766 0.03906-1.801 0.2109-6.582 0.5156-14.34h-0.3438l-14.33 48.3z"/></symbol><symbol id="d" overflow="visible"><path d="m18.77-32.64h3.875c3.625 0 6.332-0.7891 8.125-2.375 1.801-1.594 2.703-3.91 2.703-6.953 0-3.062-0.7578-5.32-2.266-6.781-1.5-1.469-3.859-2.203-7.078-2.203h-5.359zm26.59-9.781c0 6.637-1.871 11.71-5.609 15.22-3.73 3.512-9.039 5.266-15.92 5.266h-5.062v21.94h-11.78v-61.66h17.75c6.738 0 11.86 1.609 15.36 4.828 3.508 3.219 5.266 8.023 5.266 14.41z"/></symbol><symbol id="c" overflow="visible"><path d="m6.328-21.95v14.23c0 1.793 0.3828 3.133 1.156 4.016 0.7812 0.875 2 1.312 3.656 1.312 2.176 0 3.77-0.625 4.781-1.875 1.008-1.258 1.516-3.312 1.516-6.156v-11.53h3.172v21.95h-2.609l-0.4531-2.938h-0.1719c-0.6562 1.074-1.559 1.902-2.703 2.484-1.148 0.5703-2.461 0.8594-3.938 0.8594-2.543 0-4.449-0.6328-5.719-1.906-1.262-1.27-1.891-3.301-1.891-6.094v-14.36z"/></symbol><symbol id="b" overflow="visible"><path d="m12.78-19.38h-5.328v19.38h-3.156v-19.38h-3.75v-1.5l3.75-1.203v-1.219c0-5.395 2.238-8.094 6.719-8.094 1.102 0 2.398 0.2344 3.891 0.7031l-0.8125 2.656c-1.219-0.4141-2.262-0.625-3.125-0.625-1.199 0-2.086 0.4219-2.656 1.266-0.5742 0.8359-0.8594 2.172-0.8594 4.016v1.422h5.328z"/></symbol><symbol id="a" overflow="visible"><path d="m11.7 0.4062c-3.023 0-5.367-0.9766-7.031-2.938-1.656-1.957-2.484-4.727-2.484-8.312 0-3.664 0.8438-6.5 2.531-8.5 1.688-2.008 4.086-3.016 7.203-3.016 1 0 2 0.1172 3 0.3438 1.008 0.2305 1.801 0.4961 2.375 0.7969l-0.9688 2.828c-0.7109-0.2891-1.477-0.5312-2.297-0.7188-0.8242-0.1953-1.555-0.2969-2.188-0.2969-4.25 0-6.375 2.844-6.375 8.531 0 2.699 0.5156 4.773 1.547 6.219 1.039 1.438 2.578 2.156 4.609 2.156 1.75 0 3.535-0.3945 5.359-1.188v2.953c-1.398 0.7578-3.156 1.141-5.281 1.141z"/></symbol></defs><g transform="translate(-149.1 -216.7)"><g fill="#ffffff"><use x="142.08791" y="519.19629" width="100%" height="100%" xlink:href="#j"/><use x="179.78043" y="519.19629" width="100%" height="100%" xlink:href="#i"/><use x="215.19066" y="519.19629" width="100%" height="100%" xlink:href="#h"/><use x="248.6396" y="519.19629" width="100%" height="100%" xlink:href="#g"/><use x="295.08954" y="519.19629" width="100%" height="100%" xlink:href="#f"/><use x="353.91058" y="519.19629" width="100%" height="100%" xlink:href="#e"/><use x="424.16904" y="519.19629" width="100%" height="100%" xlink:href="#d"/><use x="280.70999" y="564.14258" width="100%" height="100%" xlink:href="#c"/><use x="302.72913" y="564.14258" width="100%" height="100%" xlink:href="#b"/><use x="314.01196" y="564.14258" width="100%" height="100%" xlink:href="#a"/></g><g transform="translate(14.01)" fill="#fff" fill-rule="evenodd"><path d="m392.3 331.4c-51.02-56.27-101.3-16.8-108.7-12.8-7.363 4.004 30.24-8.07 44.46 20.88 13.11 26.68-12.75 57.39 7.199 81.59 12.52 15.19 38.76 28 64 3.59 21.95-21.24 14.18-69.89-7.008-93.25"/><path d="m326.1 344.5c-0.5273-8.367-5.441 30.86-37.67 31.55-29.68 0.6524-46.6-35.77-76.93-27.87-19.04 4.953-41.72 23.38-30.24 56.57 9.977 28.88 57.34 42.34 87.43 32.96 72.48-22.58 57.93-84.84 57.41-93.21"/><path d="m309.8 217.9c-29.52-7.82-67.1 24.01-76.11 54.24-21.73 72.81 38.02 95.46 45.25 99.7 7.23 4.238-22.54-21.73-5.148-48.89 16.02-25.03 55.66-18.76 66.04-48.36 6.508-18.58 3.895-47.7-30.03-56.69"/></g></g></svg>