<svg width="535.64pt" height="169.54pt" version="1.2" viewBox="0 0 535.64 169.54" xmlns="http://www.w3.org/2000/svg">
 <defs>
  <clipPath>
   <path d="m0 0h600v254.12h-600z"/>
  </clipPath>
 </defs>
 <g transform="translate(-32.18 -42.289)" fill="#fff">
  <path d="m44.184 156.89h51.398l22.812-51.301-22.812-51.289h-51.398zm55.297 12h-61.297c-3.3164 0-6.0039-2.6836-6.0039-6v-114.6c0-3.3086 2.6875-6 6.0039-6h61.297c2.3672 0 4.5195 1.4023 5.4844 3.5625l25.48 57.297c0.6875 1.5547 0.6875 3.3242 0 4.8789l-25.48 57.293c-0.96484 2.1719-3.1172 3.5664-5.4844 3.5664"/>
  <path d="m110.23 72.977h68.59l-30.777 65.402 30.777 65.406h-68.59l-28.512-65.406z"/>
  <path d="m111.2 202.28h65.254l-29.777-63.262c-0.19532-0.40234-0.19532-0.86719 0-1.2773l29.777-63.262h-65.254l-27.848 63.898zm67.676 3.0078c-0.0195-4e-3 -0.043 0-0.0625 0h-68.59c-0.59765 0-1.1406-0.35156-1.3789-0.90234l-28.504-65.41c-0.16406-0.3789-0.16406-0.8125 0-1.1992l28.504-65.398c0.23828-0.54688 0.78125-0.90625 1.3789-0.90625h68.59c0.51953 0 0.99218 0.26562 1.2656 0.69922 0.28516 0.43359 0.3125 0.97656 0.0937 1.4453l-30.48 64.762 30.32 64.434c0.23047 0.25781 0.36719 0.60547 0.36719 0.97266 0 0.83203-0.67187 1.5039-1.5039 1.5039"/>
  <path d="m214.4 85.555c0-3.2461-2.5781-5.8203-5.7109-5.8203h-5.8203v40.977h5.8203c3.1328 0 5.7109-2.5703 5.7109-5.7109zm7.1641 0v29.445c0 7.168-5.707 12.988-12.875 12.988h-9.4062c-1.9023 0-3.582-1.6797-3.582-3.582v-48.254c0-2.0156 1.6797-3.582 3.582-3.582h9.4062c7.168 0 12.875 5.8203 12.875 12.984"/>
  <path d="m233.54 79.734v16.906h9.7422c1.0078 0 1.793 0.78125 1.793 1.793v3.582c0 1.0039-0.78516 1.793-1.793 1.793h-9.7422v17.016h9.7422c1.0078 0 1.793 0.78516 1.793 1.793v3.582c0 1.0078-0.78516 1.7891-1.793 1.7891h-13.324c-2.0156 0-3.582-1.6797-3.582-3.582v-48.254c0-2.0156 1.5664-3.582 3.582-3.582h13.324c1.0078 0 1.793 0.78125 1.793 1.7891v3.582c0 1.0117-0.78516 1.793-1.793 1.793z"/>
  <path d="m268.58 85.441c0-3.1328-2.5781-5.707-5.7109-5.707h-5.8203v16.906h5.8203c3.1328 0 5.7109-2.5742 5.7109-5.8242zm7.1641 0v5.375c0 7.168-5.8203 12.992-12.875 12.992h-5.8203v22.391c0 0.89453-0.78516 1.7891-1.793 1.7891h-3.582c-0.89453 0-1.793-0.89453-1.793-1.7891v-51.84c0-1.0078 0.89844-1.7891 1.793-1.7891h11.195c7.0547 0 12.875 5.8203 12.875 12.871"/>
  <path d="m296.91 85.555c0-3.1367-2.5781-5.7109-5.7109-5.7109-3.2461 0-5.8242 2.5742-5.8242 5.7109v11.195h11.535zm7.1641 0v40.645c0 1.0039-0.78125 1.7891-1.793 1.7891h-3.582c-1.0078 0-1.7891-0.78515-1.7891-1.7891v-22.281h-11.535v22.281c0 1.0039-0.78125 1.7891-1.7891 1.7891h-3.582c-1.0117 0-1.793-0.78515-1.793-1.7891v-40.645c0-7.0547 5.8203-12.875 12.988-12.875 7.0508 0 12.875 5.8203 12.875 12.875"/>
  <path d="m325.23 85.441c0-3.1328-2.5742-5.707-5.7109-5.707h-5.7109v16.906h5.7109c3.1367 0 5.7109-2.5742 5.7109-5.8242zm7.168 5.375c0 3.6953-1.457 7.0586-3.9219 9.4063 2.4648 2.3516 3.9219 5.5976 3.9219 9.293v16.684c0 0.89453-0.78516 1.7891-1.793 1.7891h-3.582c-1.0078 0-1.793-0.89453-1.793-1.7891v-16.684c0-3.1328-2.5742-5.707-5.7109-5.707h-5.7109v22.391c0 0.89453-0.89063 1.7891-1.7891 1.7891h-3.5781c-1.0117 0-1.7969-0.89453-1.7969-1.7891v-50.047c0-2.0156 1.5703-3.582 3.582-3.582h9.293c7.168 0 12.879 5.8203 12.879 12.871z"/>
  <path d="m353.55 74.359v3.582c0 1.0117-0.78125 1.793-1.7891 1.793h-5.0391v46.465c0 0.89453-0.78516 1.7891-1.793 1.7891h-3.582c-1.0078 0-1.793-0.89453-1.793-1.7891v-46.465h-5.0352c-1.0078 0-1.793-0.78125-1.793-1.793v-3.582c0-1.0078 0.78516-1.7891 1.793-1.7891h17.242c1.0078 0 1.7891 0.78125 1.7891 1.7891"/>
  <path d="m372.58 85.555c0-3.1367-2.5742-5.7109-5.707-5.7109-3.25 0-5.8281 2.5742-5.8281 5.7109v11.195h11.535zm7.168 0v40.645c0 1.0039-0.78516 1.7891-1.793 1.7891h-3.5859c-1.0039 0-1.7891-0.78515-1.7891-1.7891v-22.281h-11.535v22.281c0 1.0039-0.78125 1.7891-1.7891 1.7891h-3.582c-1.0078 0-1.793-0.78515-1.793-1.7891v-40.645c0-7.0547 5.8242-12.875 12.992-12.875 7.0469 0 12.875 5.8203 12.875 12.875"/>
  <path d="m429.12 85.441v40.758c0 0.89453-0.78515 1.7891-1.7891 1.7891h-3.5859c-1.0078 0-1.793-0.89453-1.793-1.7891v-40.758c0-3.1328-2.5742-5.707-5.8242-5.707-3.1289 0-5.7031 2.5742-5.7031 5.707v40.758c0 0.89453-0.78516 1.7891-1.793 1.7891h-3.582c-1.0078 0-1.793-0.89453-1.793-1.7891v-40.758c0-3.1328-2.5742-5.707-5.7109-5.707-3.2461 0-5.8242 2.5742-5.8242 5.707v40.758c0 0.89453-0.78125 1.7891-1.793 1.7891h-3.582c-0.89063 0-1.7891-0.89453-1.7891-1.7891v-40.758c0-7.0508 5.8203-12.871 12.988-12.871 3.5859 0 6.9414 1.5664 9.293 4.0312 2.3516-2.4648 5.7109-4.0312 9.2891-4.0312 7.1719 0 12.992 5.8203 12.992 12.871"/>
  <path d="m441.09 79.734v16.906h9.7422c1.0078 0 1.7891 0.78125 1.7891 1.793v3.582c0 1.0039-0.78125 1.793-1.7891 1.793h-9.7422v17.016h9.7422c1.0078 0 1.7891 0.78516 1.7891 1.793v3.582c0 1.0078-0.78125 1.7891-1.7891 1.7891h-13.324c-2.0156 0-3.582-1.6797-3.582-3.582v-48.254c0-2.0156 1.5664-3.582 3.582-3.582h13.324c1.0078 0 1.7891 0.78125 1.7891 1.7891v3.582c0 1.0117-0.78125 1.793-1.7891 1.793z"/>
  <path d="m483.3 85.441v40.758c0 0.89453-0.78125 1.7891-1.793 1.7891h-3.5781c-1.0117 0-1.793-0.89453-1.793-1.7891v-40.758c0-3.1328-2.5781-5.707-5.7109-5.707-3.2461 0-5.8203 2.5742-5.8203 5.707v40.758c0 0.89453-0.78125 1.7891-1.793 1.7891h-3.582c-1.0078 0-1.793-0.89453-1.793-1.7891v-40.758c0-7.0508 5.8203-12.871 12.988-12.871 7.0547 0 12.875 5.8203 12.875 12.871"/>
  <path d="m504.46 74.359v3.582c0 1.0117-0.78516 1.793-1.793 1.793h-5.0391v46.465c0 0.89453-0.78125 1.7891-1.7891 1.7891h-3.582c-1.0039 0-1.793-0.89453-1.793-1.7891v-46.465h-5.0391c-1.0039 0-1.7891-0.78125-1.7891-1.793v-3.582c0-1.0078 0.78515-1.7891 1.7891-1.7891h17.242c1.0078 0 1.793 0.78125 1.793 1.7891"/>
  <path d="m523.49 85.441c0-3.1328-2.5781-5.707-5.7109-5.707-3.25 0-5.8242 2.5742-5.8242 5.707v29.559c0 3.2461 2.5742 5.8242 5.8242 5.8242 3.1328 0 5.7109-2.5781 5.7109-5.8242zm7.1641 0v29.559c0 7.168-5.8203 12.988-12.875 12.988-7.168 0-12.992-5.8203-12.992-12.988v-29.559c0-7.0508 5.8242-12.871 12.992-12.871 7.0547 0 12.875 5.8203 12.875 12.871"/>
  <path d="m214.4 162.46c0-3.25-2.5781-5.8242-5.7109-5.8242h-5.8203v40.98h5.8203c3.1328 0 5.7109-2.5781 5.7109-5.7109zm7.1641 0v29.445c0 7.168-5.707 12.984-12.875 12.984h-9.4062c-1.9023 0-3.582-1.6758-3.582-3.582v-48.254c0-2.0156 1.6797-3.5859 3.582-3.5859h9.4062c7.168 0 12.875 5.8242 12.875 12.992"/>
  <path d="m233.54 156.63v16.906h9.7422c1.0078 0 1.793 0.78516 1.793 1.793v3.5781c0 1.0078-0.78516 1.793-1.793 1.793h-9.7422v17.02h9.7422c1.0078 0 1.793 0.78515 1.793 1.793v3.582c0 1.0078-0.78516 1.7891-1.793 1.7891h-13.324c-2.0156 0-3.582-1.6758-3.582-3.582v-48.254c0-2.0156 1.5664-3.5859 3.582-3.5859h13.324c1.0078 0 1.793 0.78907 1.793 1.793v3.582c0 1.0078-0.78516 1.793-1.793 1.793z"/>
  <path d="m280.11 166.15v-3.8047c0-3.1367-2.5742-5.7109-5.707-5.7109-3.1367 0-5.7148 2.5742-5.7148 5.7109v29.668c0 3.1367 2.5781 5.7109 5.7148 5.7109 3.1328 0 5.707-2.5742 5.707-5.7109v-4.1406c0-1.0078 0.78516-1.793 1.793-1.793h3.582c1.0039 0 1.793 0.78516 1.793 1.793v4.1406c0 7.0586-5.8242 12.875-12.875 12.875-7.168 0-12.875-5.8164-12.875-12.875v-29.668c0-7.0547 5.707-12.879 12.875-12.879 7.0508 0 12.875 5.8242 12.875 12.879v3.8047c0 1.0117-0.78906 1.7891-1.793 1.7891h-3.582c-1.0078 0-1.793-0.77734-1.793-1.7891"/>
  <path d="m309.67 162.34c0-3.1367-2.5781-5.7109-5.7109-5.7109-3.2461 0-5.8203 2.5742-5.8203 5.7109v29.559c0 3.2461 2.5742 5.8203 5.8203 5.8203 3.1328 0 5.7109-2.5742 5.7109-5.8203zm7.1641 0v29.559c0 7.168-5.8203 12.984-12.875 12.984-7.1641 0-12.988-5.8164-12.988-12.984v-29.559c0-7.0547 5.8242-12.879 12.988-12.879 7.0547 0 12.875 5.8242 12.875 12.879"/>
  <path d="m366.21 162.34v40.754c0 0.89453-0.78516 1.7891-1.793 1.7891h-3.582c-1.0117 0-1.793-0.89453-1.793-1.7891v-40.754c0-3.1367-2.5781-5.7109-5.8203-5.7109-3.1367 0-5.7109 2.5742-5.7109 5.7109v40.754c0 0.89453-0.78125 1.7891-1.793 1.7891h-3.582c-1.0078 0-1.793-0.89453-1.793-1.7891v-40.754c0-3.1367-2.5742-5.7109-5.707-5.7109-3.2461 0-5.8242 2.5742-5.8242 5.7109v40.754c0 0.89453-0.78125 1.7891-1.7891 1.7891h-3.5859c-0.89453 0-1.7891-0.89453-1.7891-1.7891v-40.754c0-7.0547 5.8203-12.879 12.988-12.879 3.582 0 6.9414 1.5703 9.293 4.0312 2.3516-2.4609 5.707-4.0312 9.293-4.0312 7.1641 0 12.988 5.8242 12.988 12.879"/>
  <path d="m389.71 162.34c0-3.1367-2.5703-5.7109-5.707-5.7109h-5.8242v16.906h5.8242c3.1367 0 5.707-2.5742 5.707-5.8242zm7.168 0v5.3711c0 7.168-5.8242 12.988-12.875 12.988h-5.8242v22.395c0 0.89453-0.78125 1.7891-1.7891 1.7891h-3.582c-0.89453 0-1.793-0.89453-1.793-1.7891v-51.84c0-1.0039 0.89844-1.793 1.793-1.793h11.195c7.0508 0 12.875 5.8242 12.875 12.879"/>
  <path d="m425.2 151.26v40.645c0 7.168-5.8203 12.984-12.871 12.984-7.168 0-12.992-5.8164-12.992-12.984v-40.645c0-1.0039 0.89453-1.793 1.7891-1.793h3.5859c1.0078 0 1.7891 0.78907 1.7891 1.793v40.645c0 3.2461 2.5781 5.8203 5.8281 5.8203 3.1328 0 5.707-2.5742 5.707-5.8203v-40.645c0-1.0039 0.78515-1.793 1.7891-1.793h3.582c1.0078 0 1.793 0.78907 1.793 1.793"/>
  <path d="m449.71 151.26v3.582c0 1.0078-0.78125 1.793-1.7891 1.793h-5.0391v46.465c0 0.89453-0.78125 1.7891-1.793 1.7891h-3.582c-1.0039 0-1.793-0.89453-1.793-1.7891v-46.465h-5.0391c-1.0078 0-1.7891-0.78515-1.7891-1.793v-3.582c0-1.0039 0.78125-1.793 1.7891-1.793h17.246c1.0078 0 1.7891 0.78907 1.7891 1.793"/>
  <path d="m468.75 162.46c0-3.1367-2.5781-5.7109-5.7148-5.7109-3.2422 0-5.8203 2.5742-5.8203 5.7109v11.191h11.535zm7.1641 0v40.641c0 1.0078-0.78515 1.7891-1.793 1.7891h-3.582c-1.0078 0-1.7891-0.78125-1.7891-1.7891v-22.281h-11.535v22.281c0 1.0078-0.78125 1.7891-1.793 1.7891h-3.5781c-1.0117 0-1.7969-0.78125-1.7969-1.7891v-40.641c0-7.0547 5.8242-12.875 12.988-12.875 7.0547 0 12.879 5.8203 12.879 12.875"/>
  <path d="m499.42 166.04v-3.8047c0-3.1367-2.5742-5.707-5.8203-5.707-3.1367 0-5.7148 2.5703-5.7148 5.707v29.781c0 3.1367 2.5781 5.7109 5.7148 5.7109 3.2461 0 5.8203-2.5742 5.8203-5.7109v-4.1406c0-1.0078 0.78516-1.793 1.793-1.793h3.5781c0.89844 0 1.793 0.78516 1.793 1.793v4.1406c0 5.8242-4.0274 10.863-9.4062 12.43v5.5976c0 1.0078-0.78125 1.7891-1.7891 1.7891h-3.582c-1.0039 0-1.793-0.78125-1.793-1.7891v-5.5976c-5.3711-1.5664-9.293-6.6055-9.293-12.43v-29.781c0-7.168 5.8242-12.875 12.879-12.875 7.1641 0 12.984 5.707 12.984 12.875v3.8047c0 1.0117-0.89453 1.793-1.793 1.793h-3.5781c-1.0078 0-1.793-0.78125-1.793-1.793"/>
  <path d="m560.66 162.34c0-3.1367-2.582-5.7109-5.7148-5.7109-3.2461 0-5.8164 2.5742-5.8164 5.7109v29.559c0 3.2461 2.5703 5.8203 5.8164 5.8203 3.1328 0 5.7148-2.5742 5.7148-5.8203zm7.1602 0v29.559c0 7.168-5.8203 12.984-12.875 12.984-7.1641 0-12.984-5.8164-12.984-12.984v-29.559c0-7.0547 5.8203-12.879 12.984-12.879 7.0547 0 12.875 5.8242 12.875 12.879"/>
  <path d="m526.41 144.14v-4.7969c0-0.58204 0.78516-1.168 1.793-1.168h3.4688c1.0117 0 1.793 0.58593 1.793 1.168v4.7969c0 0.65625-0.78125 1.1641-1.793 1.1641h-3.4688c-1.0078 0-1.793-0.50781-1.793-1.1641m-11.531 0v-4.7969c0-0.58204 0.78516-1.168 1.7969-1.168h3.582c1 0 1.7852 0.58593 1.7852 1.168v4.7969c0 0.65625-0.78515 1.1641-1.7852 1.1641h-3.582c-1.0117 0-1.7969-0.50781-1.7969-1.1641m16.336 1.1758h-13.168v-7.1367h13.168zm-1.2188 17.25c0-3.1328-2.5781-5.707-5.7109-5.707-3.2422 0-5.8203 2.5742-5.8203 5.707v11.09h11.531zm7.1641 0v40.648c0 1.0078-0.78516 1.7891-1.7891 1.7891h-3.582c-1.0078 0-1.793-0.78125-1.793-1.7891v-22.391h-11.531v22.391c0 1.0078-0.78125 1.7891-1.7891 1.7891h-3.5898c-1.0078 0-1.7891-0.78125-1.7891-1.7891v-40.648c0-7.1641 5.8281-12.875 12.988-12.875 7.0547 0 12.875 5.7109 12.875 12.875"/>
 </g>
</svg>
